<svg width="24" height="24" viewBox="0 0 24 24" fill="none" xmlns="http://www.w3.org/2000/svg">
<path d="M15.0001 19.88C15.0401 20.18 14.9401 20.5 14.7101 20.71C14.6176 20.8027 14.5077 20.8762 14.3868 20.9264C14.2658 20.9766 14.1361 21.0024 14.0051 21.0024C13.8742 21.0024 13.7445 20.9766 13.6235 20.9264C13.5025 20.8762 13.3926 20.8027 13.3001 20.71L9.29013 16.7C9.18107 16.5934 9.09814 16.463 9.04783 16.319C8.99752 16.175 8.9812 16.0213 9.00013 15.87V10.75L4.21013 4.62C4.04774 4.41153 3.97446 4.14726 4.00632 3.88493C4.03817 3.6226 4.17257 3.38355 4.38013 3.22C4.57013 3.08 4.78013 3 5.00013 3H19.0001C19.2201 3 19.4301 3.08 19.6201 3.22C19.8277 3.38355 19.9621 3.6226 19.9939 3.88493C20.0258 4.14726 19.9525 4.41153 19.7901 4.62L15.0001 10.75V19.88ZM7.04013 5L11.0001 10.06V15.58L13.0001 17.58V10.05L16.9601 5H7.04013Z" fill="white"/>
</svg>
